<?xml version="1.0" standalone="no"?>
<!DOCTYPE svg PUBLIC "-//W3C//DTD SVG 20010904//EN"
 "http://www.w3.org/TR/2001/REC-SVG-20010904/DTD/svg10.dtd">
<svg version="1.0" xmlns="http://www.w3.org/2000/svg"
 width="512.000000pt" height="512.000000pt" viewBox="0 0 512.000000 512.000000"
 preserveAspectRatio="xMidYMid meet">

<g transform="translate(0.000000,512.000000) scale(0.100000,-0.100000)"
fill="#fff" stroke="#fff">
<path d="M817 4876 c-53 -19 -110 -61 -139 -101 -13 -19 -131 -294 -263 -613
l-238 -579 -42 -11 c-53 -14 -91 -44 -115 -93 -19 -36 -20 -60 -20 -537 0
-490 0 -500 21 -526 26 -33 77 -36 105 -5 18 20 19 47 24 518 l5 496 1884 3
1885 2 23 22 c33 30 31 80 -3 107 l-27 21 -1788 0 c-984 0 -1789 2 -1789 4 0
2 101 248 225 546 172 417 231 551 255 574 l30 31 1710 0 1710 0 30 -30 c20
-20 50 -79 86 -165 58 -141 79 -170 123 -170 34 0 71 37 71 71 0 36 -115 304
-149 347 -16 21 -53 51 -83 68 l-53 29 -1720 2 c-1430 2 -1726 0 -1758 -11z"/>
<path d="M1763 4443 c-61 -21 -136 -92 -163 -155 -51 -115 -22 -249 71 -332
88 -79 49 -76 889 -76 840 0 801 -3 889 76 128 115 128 313 0 428 -88 79 -48
76 -893 75 -640 0 -757 -3 -793 -16z m1557 -148 c45 -23 74 -71 74 -125 0 -32
-7 -56 -23 -78 -46 -65 -7 -62 -811 -62 -627 0 -735 2 -760 15 -96 50 -100
189 -5 246 28 18 67 19 763 19 629 0 737 -2 762 -15z"/>
<path d="M4580 4200 c-11 -11 -20 -33 -20 -51 0 -17 48 -146 106 -287 59 -141
109 -263 111 -269 4 -10 -57 -13 -285 -13 -278 0 -290 -1 -316 -21 -30 -23
-35 -72 -12 -105 14 -18 33 -19 408 -24 l393 -5 0 -1520 0 -1520 -1762 -3
-1763 -2 0 567 c0 385 -4 581 -11 608 -16 57 -46 95 -93 116 -38 17 -72 19
-431 19 -439 0 -444 -1 -501 -76 l-29 -37 -3 -599 -2 -599 -108 3 -107 3 -5
892 c-5 829 -6 894 -22 913 -24 28 -81 27 -108 -2 -20 -22 -20 -30 -20 -920 0
-741 2 -904 14 -931 16 -39 61 -82 99 -96 20 -8 763 -11 2450 -11 2286 0 2424
1 2456 18 19 9 48 34 65 55 l31 39 3 1541 c2 1392 1 1546 -13 1584 -20 52 -63
90 -120 105 l-42 11 -124 301 c-68 165 -132 309 -141 318 -24 24 -73 23 -98
-2z m-3302 -2672 c8 -8 12 -52 12 -130 l0 -118 -385 0 -385 0 0 123 c0 68 3
127 7 130 3 4 171 7 373 7 271 0 369 -3 378 -12z m10 -775 l2 -373 -385 0
-385 0 0 375 0 375 383 -2 382 -3 3 -372z"/>
<path d="M2422 2985 c-83 -18 -193 -73 -267 -132 -72 -59 -157 -173 -186 -252
-21 -58 -21 -58 -74 -70 -56 -13 -151 -65 -199 -109 -134 -125 -174 -345 -93
-515 44 -95 114 -164 211 -212 93 -46 202 -57 305 -31 35 9 65 15 66 14 12
-13 60 -172 76 -246 35 -170 68 -192 299 -192 231 0 264 22 299 192 16 74 64
233 76 246 1 1 31 -5 66 -14 207 -53 418 45 514 240 68 137 59 306 -25 434
-20 31 -50 69 -66 84 -48 44 -143 96 -199 109 -53 12 -54 12 -74 69 -12 31
-43 89 -71 128 -147 209 -408 311 -658 257z m251 -150 c179 -47 309 -175 361
-358 19 -65 27 -70 118 -86 150 -26 245 -127 256 -271 7 -98 -17 -160 -87
-231 -71 -70 -133 -94 -230 -87 -62 5 -141 32 -141 50 0 4 14 18 31 30 45 34
129 147 129 175 0 58 -50 94 -102 72 -15 -6 -28 -15 -28 -20 0 -4 -25 -35 -55
-68 -106 -114 -213 -163 -360 -164 -148 -2 -260 47 -364 159 -34 35 -61 69
-61 73 0 5 -13 14 -28 20 -52 22 -102 -14 -102 -72 0 -28 84 -141 129 -175 17
-12 31 -26 31 -30 0 -18 -79 -45 -141 -50 -97 -7 -159 17 -230 87 -70 71 -94
133 -87 230 11 144 106 246 255 272 92 16 100 21 119 86 75 265 335 424 587
358z m-268 -1092 c85 -23 241 -20 330 5 38 12 71 20 72 18 1 -1 -13 -39 -31
-84 -18 -45 -44 -129 -56 -187 l-24 -105 -137 0 -138 0 -6 38 c-13 76 -54 220
-79 276 -31 69 -31 70 -8 61 9 -3 44 -14 77 -22z"/>
</g>
</svg>
