<?xml version="1.0" standalone="no"?>
<!DOCTYPE svg PUBLIC "-//W3C//DTD SVG 20010904//EN"
 "http://www.w3.org/TR/2001/REC-SVG-20010904/DTD/svg10.dtd">
<svg version="1.0" xmlns="http://www.w3.org/2000/svg"
 width="512.000000pt" height="512.000000pt" viewBox="0 0 512.000000 512.000000"
 preserveAspectRatio="xMidYMid meet">

<g transform="translate(0.000000,512.000000) scale(0.100000,-0.100000)"
fill="#fff" stroke="#fff">
<path d="M2385 4757 c-361 -190 -582 -467 -641 -809 -30 -172 -3 -404 65 -560
l20 -48 66 0 c36 0 65 3 65 6 0 3 -9 41 -20 85 -68 264 -66 516 4 701 28 75
96 182 126 198 35 19 77 12 99 -16 29 -37 27 -51 -24 -128 -83 -127 -112 -248
-102 -426 7 -122 18 -188 54 -322 l26 -98 568 0 568 0 27 45 c36 62 73 181 89
290 7 49 12 91 10 93 -1 2 -14 -17 -28 -41 -14 -24 -46 -62 -71 -85 -39 -36
-52 -42 -90 -42 -36 0 -50 6 -74 29 -59 60 -66 171 -27 477 28 212 43 508 30
589 l-7 50 -28 -75 c-91 -249 -255 -480 -374 -525 -119 -46 -206 20 -238 181
-16 81 -16 344 1 417 7 32 11 60 9 62 -2 2 -48 -20 -103 -48z"/>
<path d="M1795 3138 c4 -24 9 -46 12 -50 6 -11 1481 -10 1487 0 3 5 8 28 12
50 l7 42 -763 0 -762 0 7 -42z"/>
<path d="M1870 2912 c0 -15 61 -106 108 -161 87 -102 237 -194 381 -233 97
-26 266 -28 364 -5 80 20 196 72 263 118 88 60 213 203 240 273 6 15 -59 16
-675 16 -375 0 -681 -4 -681 -8z"/>
<path d="M2302 1503 c37 -489 67 -894 67 -900 1 -10 44 -13 180 -13 l178 0 6
58 c15 145 129 1733 125 1737 -3 3 -40 -5 -84 -17 -113 -31 -335 -31 -448 0
-44 12 -82 22 -85 22 -4 0 24 -399 61 -887z"/>
<path d="M2380 413 c0 -16 3 -45 6 -65 l7 -38 158 0 159 0 0 28 c0 15 3 44 6
65 l7 37 -172 0 -171 0 0 -27z"/>
</g>
</svg>
