<?xml version="1.0" standalone="no"?>
<!DOCTYPE svg PUBLIC "-//W3C//DTD SVG 20010904//EN"
 "http://www.w3.org/TR/2001/REC-SVG-20010904/DTD/svg10.dtd">
<svg version="1.0" xmlns="http://www.w3.org/2000/svg"
 width="512.000000pt" height="512.000000pt" viewBox="0 0 512.000000 512.000000"
 preserveAspectRatio="xMidYMid meet">

<g transform="translate(0.000000,512.000000) scale(0.100000,-0.100000)"
fill="#fff" stroke="#fff">
<path d="M2285 4618 c-250 -25 -667 -275 -999 -597 -250 -243 -412 -476 -460
-661 -8 -30 -30 -81 -49 -113 -70 -115 -82 -228 -34 -316 12 -23 538 -573
1180 -1235 923 -951 1164 -1195 1189 -1200 53 -11 1541 -7 1598 4 130 25 236
107 292 226 37 80 47 192 29 353 -43 395 -213 612 -545 696 -95 24 -259 45
-351 45 l-53 0 -16 69 c-9 39 -16 74 -16 80 0 5 25 13 55 16 71 9 105 35 105
80 0 18 -9 43 -19 56 -18 22 -26 24 -99 22 l-79 -3 -18 106 c-20 120 -19 124
48 124 28 0 44 7 62 26 27 30 31 51 14 87 -17 38 -50 51 -113 43 l-55 -6 -5
32 c-11 65 -26 177 -26 187 0 6 15 11 34 11 48 0 89 37 89 79 0 47 -32 74 -95
81 l-53 5 -17 145 c-9 80 -35 262 -58 405 -47 296 -48 298 -132 308 -65 8
-186 -9 -257 -35 -139 -52 -221 -127 -261 -240 -22 -63 -22 -63 -150 -15 -230
87 -419 256 -490 439 -75 192 -62 381 34 507 47 63 26 120 -59 161 -57 28
-132 37 -220 28z m78 -218 c-68 -170 -48 -412 52 -611 114 -225 384 -425 676
-499 103 -26 193 -38 379 -49 85 -6 169 -15 187 -21 40 -14 48 -38 63 -185 6
-60 14 -117 16 -127 4 -14 -6 -17 -63 -23 -83 -8 -107 -17 -129 -49 -19 -31
-13 -67 18 -98 19 -19 28 -20 108 -14 l88 7 11 -83 c7 -46 14 -98 18 -115 l5
-33 -44 0 c-57 0 -106 -17 -118 -40 -17 -33 -11 -75 14 -99 21 -20 33 -22 97
-20 l74 2 17 -89 c26 -136 27 -131 -37 -139 -88 -11 -122 -73 -71 -132 23 -26
28 -28 94 -25 l69 3 7 -33 c27 -143 52 -224 72 -245 21 -21 33 -23 112 -23
123 0 276 -17 369 -40 272 -69 395 -236 429 -582 l6 -68 -814 0 -814 0 -1138
1161 -1138 1162 6 36 c9 59 83 196 164 304 294 392 912 826 1178 827 l62 0
-25 -60z m1283 -865 c6 -38 14 -88 17 -111 l7 -41 -48 8 c-26 4 -76 8 -112 8
-36 1 -95 4 -133 8 -63 5 -67 7 -61 27 10 35 52 94 79 112 56 37 140 64 190
61 l49 -2 12 -70z m-1870 -1285 c477 -487 990 -1010 1141 -1162 l274 -278 835
0 c459 0 834 -3 834 -7 0 -19 -41 -73 -74 -98 -73 -55 -65 -55 -877 -55 l-748
0 -1135 1170 c-1223 1261 -1173 1204 -1146 1284 6 20 16 36 20 34 5 -2 399
-401 876 -888z"/>
<path d="M1243 3340 c-28 -11 -43 -40 -43 -81 0 -28 29 -61 272 -305 257 -259
274 -274 308 -274 43 0 67 22 76 68 6 30 -3 41 -194 239 -350 364 -364 376
-419 353z"/>
<path d="M2019 2511 c-54 -54 -50 -61 180 -299 353 -367 357 -370 416 -319 33
28 36 74 7 113 -11 16 -135 143 -274 282 -183 182 -260 252 -277 252 -12 0
-36 -13 -52 -29z"/>
<path d="M2786 1729 c-19 -15 -26 -30 -26 -56 0 -32 20 -55 277 -317 152 -154
286 -286 297 -293 32 -19 269 -17 305 2 48 24 57 87 18 123 -21 20 -34 22
-139 22 l-116 0 -265 270 c-288 294 -291 296 -351 249z"/>
<path d="M532 2183 c-15 -6 -42 -56 -42 -78 0 -9 13 -30 29 -46 l29 -29 230 0
c214 0 231 1 255 20 13 11 28 31 31 45 7 29 -15 79 -39 89 -20 7 -474 7 -493
-1z"/>
<path d="M105 1755 c-40 -39 -32 -96 16 -120 24 -13 129 -15 692 -15 647 0
665 1 690 20 13 11 28 31 31 45 7 29 -15 79 -39 89 -9 3 -320 6 -691 6 l-675
0 -24 -25z"/>
<path d="M435 1345 c-16 -15 -25 -36 -25 -55 0 -19 9 -40 25 -55 l24 -25 671
0 672 0 29 29 c16 16 29 37 29 46 0 24 -27 72 -45 79 -9 3 -318 6 -686 6
l-670 0 -24 -25z"/>
</g>
</svg>
